HIERARCHY
ROOT Hips
{
	OFFSET 0.00 0.00 0.00
	CHANNELS 6 Xposition Yposition Zposition Yrotation Xrotation Zrotation
	JOINT Spine
	{
		OFFSET	0.0000	9.2263	1.5771
		CHANNELS 3 Xrotation Yrotation Zrotation
		JOINT Spine1
		{
			OFFSET	0.0000	16.2540	-0.1656
			CHANNELS 3 Xrotation Yrotation Zrotation
			JOINT Spine2
			{
				OFFSET	0.0000	13.6396	-1.2923
				CHANNELS 3 Xrotation Yrotation Zrotation
				JOINT Neck
				{
					OFFSET	0.0000	13.8774	-4.3542
					CHANNELS 3 Xrotation Yrotation Zrotation
					JOINT Neck1
					{
						OFFSET	0.0000	4.3400	0.9269
						CHANNELS 3 Xrotation Yrotation Zrotation
						JOINT Head
						{
							OFFSET	0.0000	4.0266	0.8585
							CHANNELS 3 Xrotation Yrotation Zrotation
							End Site
							{
								OFFSET 0.0000 23.0297 0.1231
							}
						}
					}
				}
				JOINT LeftShoulder
				{
					OFFSET	6.1442	10.1870	-3.7932
					CHANNELS 3 Zrotation Xrotation Yrotation
					JOINT LeftArm
					{
						OFFSET	12.3191	-1.1130	-1.7935
						CHANNELS 3 Zrotation Xrotation Yrotation
						JOINT LeftForeArm
						{
							OFFSET	27.6870	0.0000	0.0000
							CHANNELS 3 Xrotation Zrotation Yrotation
							JOINT LeftHand
							{
								OFFSET	27.8738	0.0000	0.0000
								CHANNELS 3 Zrotation Yrotation Xrotation
								JOINT LeftHandThumb1
								{
									OFFSET	2.3785	-1.0029	2.6209
									CHANNELS 3 Zrotation Xrotation Yrotation
									JOINT LeftHandThumb2
									{
										OFFSET	3.3624	-1.0029	2.8398
										CHANNELS 3 Zrotation Xrotation Yrotation
										JOINT LeftHandThumb3
										{
											OFFSET	4.5018	-1.3445	2.1783
											CHANNELS 3 Zrotation Xrotation Yrotation
											End Site
											{
												OFFSET 2.6000 -1.0000 1.0000
											}
										}
									}
								}
								JOINT LeftHandMiddle1
								{
									OFFSET	10.4639	0.6148	0.4298
									CHANNELS 3 Zrotation Xrotation Yrotation
									JOINT LeftHandMiddle2
									{
										OFFSET	5.7921	0.0000	0.0000
										CHANNELS 3 Zrotation Xrotation Yrotation
										JOINT LeftHandMiddle3
										{
											OFFSET	3.7132	0.0000	0.0000
											CHANNELS 3 Zrotation Xrotation Yrotation
											End Site
											{
												OFFSET 2.3000 0.0000 0.0000
											}
										}
									}
								}
								JOINT LeftHandIndex1
								{
									OFFSET	10.3945	0.6148	2.7055
									CHANNELS 3 Zrotation Xrotation Yrotation
									JOINT LeftHandIndex2
									{
										OFFSET	5.5493	0.0000	0.0000
										CHANNELS 3 Zrotation Xrotation Yrotation
										JOINT LeftHandIndex3
										{
											OFFSET	3.3911	0.0000	0.0000
											CHANNELS 3 Zrotation Xrotation Yrotation
											End Site
											{
												OFFSET 2.5000 0.0000 0.0000
											}
										}
									}
								}
								JOINT LeftHandRing1
								{
									OFFSET	10.3252	0.3211	-1.8755
									CHANNELS 3 Zrotation Xrotation Yrotation
									JOINT LeftHandRing2
									{
										OFFSET	5.4452	0.0000	0.0000
										CHANNELS 3 Zrotation Xrotation Yrotation
										JOINT LeftHandRing3
										{
											OFFSET	3.7132	0.0000	0.0000
											CHANNELS 3 Zrotation Xrotation Yrotation
											End Site
											{
												OFFSET 2.0000 0.0000 0.0000
											}
										}
									}
								}
								JOINT LeftHandPinky1
								{
									OFFSET	10.0130	-0.0783	-3.9671
									CHANNELS 3 Zrotation Xrotation Yrotation
									JOINT LeftHandPinky2
									{
										OFFSET	3.6763	0.0000	0.0000
										CHANNELS 3 Zrotation Xrotation Yrotation
										JOINT LeftHandPinky3
										{
											OFFSET	2.8113	0.0000	0.0000
											CHANNELS 3 Zrotation Xrotation Yrotation
											End Site
											{
												OFFSET 2.9000 0.0000 0.0000
											}
										}
									}
								}
							}
						}
					}
				}
				JOINT RightShoulder
				{
					OFFSET	-6.1402	10.1870	-3.7932
					CHANNELS 3 Zrotation Xrotation Yrotation
					JOINT RightArm
					{
						OFFSET	-12.3231	-1.1130	-1.7935
						CHANNELS 3 Zrotation Xrotation Yrotation
						JOINT RightForeArm
						{
							OFFSET	-27.6870	0.0000	0.0000
							CHANNELS 3 Xrotation Zrotation Yrotation
							JOINT RightHand
							{
								OFFSET	-27.8738	0.0000	0.0000
								CHANNELS 3 Zrotation Yrotation Xrotation
								JOINT RightHandThumb1
								{
									OFFSET	-2.5178	-0.9367	2.5137
									CHANNELS 3 Zrotation Xrotation Yrotation
									JOINT RightHandThumb2
									{
										OFFSET	-3.2638	-1.0870	2.9669
										CHANNELS 3 Zrotation Xrotation Yrotation
										JOINT RightHandThumb3
										{
											OFFSET	-4.4165	-1.3703	2.1350
											CHANNELS 3 Zrotation Xrotation Yrotation
											End Site
											{
												OFFSET -2.6000 -1.0000 1.0000
											}
										}
									}
								}
								JOINT RightHandIndex1
								{
									OFFSET	-10.4665	0.4896	2.7120
									CHANNELS 3 Zrotation Xrotation Yrotation
									JOINT RightHandIndex2
									{
										OFFSET	-5.3768	0.0000	0.0000
										CHANNELS 3 Zrotation Xrotation Yrotation
										JOINT RightHandIndex3
										{
											OFFSET	-3.3855	0.0000	0.0000
											CHANNELS 3 Zrotation Xrotation Yrotation
											End Site
											{
												OFFSET -2.6000 0.0000 0.0000
											}
										}
									}
								}
								JOINT RightHandMiddle1
								{
									OFFSET	-10.7596	0.4896	0.4278
									CHANNELS 3 Zrotation Xrotation Yrotation
									JOINT RightHandMiddle2
									{
										OFFSET	-5.6168	0.0000	0.0000
										CHANNELS 3 Zrotation Xrotation Yrotation
										JOINT RightHandMiddle3
										{
											OFFSET	-3.7364	0.0000	0.0000
											CHANNELS 3 Zrotation Xrotation Yrotation
											End Site
											{
												OFFSET -2.3000 0.0000 0.0000
											}
										}
									}
								}
								JOINT RightHandRing1
								{
									OFFSET	-10.4702	0.3879	-1.9363
									CHANNELS 3 Zrotation Xrotation Yrotation
									JOINT RightHandRing2
									{
										OFFSET	-5.4013	0.0000	0.0000
										CHANNELS 3 Zrotation Xrotation Yrotation
										JOINT RightHandRing3
										{
											OFFSET	-3.3916	0.0000	0.0000
											CHANNELS 3 Zrotation Xrotation Yrotation
											End Site
											{
												OFFSET -2.2000 0.0000 0.0000
											}
										}
									}
								}
								JOINT RightHandPinky1
								{
									OFFSET	-9.9715	-0.1191	-3.9540
									CHANNELS 3 Zrotation Xrotation Yrotation
									JOINT RightHandPinky2
									{
										OFFSET	-3.6528	0.0000	0.0000
										CHANNELS 3 Zrotation Xrotation Yrotation
										JOINT RightHandPinky3
										{
											OFFSET	-2.7820	0.0000	0.0000
											CHANNELS 3 Zrotation Xrotation Yrotation
											End Site
											{
												OFFSET -2.9000 0.0000 0.0000
											}
										}
									}
								}
							}
						}
					}
				}
			}
		}
	}
	JOINT LeftUpLeg
	{
		OFFSET	9.6338	-3.2733	0.0000
		CHANNELS 3 Xrotation Yrotation Zrotation
		JOINT LeftLeg
		{
			OFFSET	0.0000	-41.7300	-1.7300
			CHANNELS 3 Xrotation Yrotation Zrotation
			JOINT LeftFoot
			{
				OFFSET	0.0126	-39.1900	-0.8477
				CHANNELS 3 Xrotation Yrotation Zrotation
				JOINT LeftToeBase
				{
					OFFSET	-0.1833	-12.1931	8.2823
					CHANNELS 3 Xrotation Yrotation Zrotation
					End Site
					{
						OFFSET 0.0000 0.0000 10.1681
					}
				}
			}
		}
	}
	JOINT RightUpLeg
	{
		OFFSET	-9.6338	-3.2733	0.0000
		CHANNELS 3 Xrotation Yrotation Zrotation
		JOINT RightLeg
		{
			OFFSET	0.0000	-41.7300	-1.7300
			CHANNELS 3 Xrotation Yrotation Zrotation
			JOINT RightFoot
			{
				OFFSET	0.0126	-39.1900	-0.8477
				CHANNELS 3 Xrotation Yrotation Zrotation
				JOINT RightToeBase
				{
					OFFSET	-0.1833	-12.1931	8.2823
					CHANNELS 3 Xrotation Yrotation Zrotation
					End Site
					{
						OFFSET 0.0032 0.0000 10.1681
					}
				}
			}
		}
	}
}
MOTION
Frames: 4
Frame Time: 0.0333333
3.5884 80.6657 3.3108 -25.7019 1.1412 -0.8108 6.3336 10.2713 -2.1186 5.1839 2.9904 0.3548 5.1963 2.9617 0.4161 -0.1296 1.5192 -2.9963 -0.0000 0.0000 -0.0000 5.1659 2.3566 -3.1900 -5.5987 3.6910 -9.7778 -57.4539 -20.5346 -50.0011 0.0000 -0.0000 -122.7899 -1.6726 9.0808 18.3336 -9.1948 9.9447 21.3315 -7.1120 -1.1907 3.7989 6.5826 -0.7621 54.0307 -80.8752 1.4160 0.8679 -93.3071 -1.0738 1.0136 -53.0349 -0.4048 0.8112 -80.1188 1.4250 0.6737 -93.3061 -1.0738 1.0136 -53.8381 -0.4162 0.8197 -79.5215 1.4319 0.8027 -93.9412 -1.0850 1.0129 -54.2298 -0.4218 0.8237 -82.9187 1.3897 2.6944 -93.2884 3.0069 1.2446 -51.5858 -0.3844 0.7955 8.2597 5.0999 18.7050 46.3196 -11.4621 62.6763 -0.0000 -0.0000 110.7336 -15.8507 -3.9239 -5.7673 15.9929 0.1670 -29.8550 -0.1393 0.9071 3.8738 -12.8249 34.3124 -46.0420 87.2803 -0.0059 -2.2286 89.8835 -2.2803 -2.2850 55.2074 -0.9811 -1.8763 88.0370 -0.0356 -2.3084 89.8839 -2.2803 -2.2850 54.4520 -0.3110 -1.8582 85.9224 0.0463 -2.3212 91.4197 -2.3416 -2.2843 56.1092 -0.6705 -1.8962 87.2803 -0.0059 -2.2286 89.8835 -2.2803 -2.2850 55.2074 -0.9811 -1.8763 -50.3575 8.6657 20.8913 27.5204 -7.4995 2.9714 16.6346 -4.8802 -12.2379 -2.9679 -0.0000 -0.0000 5.4355 -22.0400 -28.8935 21.6972 4.1908 -4.4839 -10.3692 5.2768 28.9055 -17.4536 -0.0000 -0.0000 
4.0817 79.8870 3.8784 -23.8172 0.0065 0.8961 7.4059 10.1482 -3.9509 5.7765 2.8244 -0.8523 5.8168 2.7671 -0.7784 -0.6656 1.2749 -2.3636 -0.0000 0.0000 -0.0000 5.5324 1.2687 -1.6613 -6.1142 3.9730 -10.3327 -56.5243 -19.3214 -50.8225 -0.0000 -0.0000 -119.1045 -2.6757 8.7170 18.7345 -9.1948 9.9447 21.3315 -7.1120 -1.1908 3.7989 6.5826 -0.7621 54.0307 -80.8751 1.4160 0.8679 -93.3070 -1.0738 1.0136 -53.0349 -0.4048 0.8112 -80.1188 1.4250 0.6736 -93.3061 -1.0738 1.0136 -53.8380 -0.4162 0.8197 -79.5215 1.4319 0.8027 -93.9411 -1.0850 1.0128 -54.2298 -0.4218 0.8237 -82.9187 1.3897 2.6944 -93.2884 3.0069 1.2446 -51.5857 -0.3844 0.7955 6.5230 3.7821 16.7909 48.1514 -7.7631 56.7355 -0.0000 -0.0000 111.9674 -16.7207 -0.8515 -2.7153 15.9929 0.1670 -29.8550 -0.1393 0.9071 3.8738 -12.8249 34.3124 -46.0420 87.2803 -0.0059 -2.2286 89.8835 -2.2803 -2.2850 55.2074 -0.9811 -1.8763 88.0370 -0.0355 -2.3084 89.8839 -2.2803 -2.2850 54.4520 -0.3110 -1.8582 85.9224 0.0463 -2.3212 91.4197 -2.3416 -2.2843 56.1092 -0.6704 -1.8962 87.2803 -0.0059 -2.2286 89.8835 -2.2803 -2.2850 55.2074 -0.9811 -1.8763 -52.8995 8.2035 18.1387 40.4260 -7.7430 2.8968 10.6065 -5.0884 -9.8824 -1.5114 -0.0000 0.0000 5.4345 -24.6695 -33.0369 24.2559 4.8640 -6.4686 -4.3314 9.7307 28.5622 -19.7493 0.0000 -0.0000 
4.6441 80.4138 4.5711 -23.3594 -0.3073 2.5723 7.8894 10.0304 -5.4463 6.1453 2.6976 -1.8752 6.2037 2.6278 -1.8034 -0.8145 1.0970 -2.1884 -0.0000 0.0000 -0.0000 5.4279 0.2790 -0.4367 -6.7794 4.2441 -10.7433 -55.3304 -18.3006 -50.2019 -0.0000 -0.0000 -115.1314 -2.1995 8.0134 19.5904 -9.1948 9.9447 21.3315 -7.1120 -1.1907 3.7989 6.5826 -0.7621 54.0307 -80.8751 1.4160 0.8679 -93.3070 -1.0738 1.0136 -53.0349 -0.4047 0.8112 -80.1188 1.4250 0.6736 -93.3061 -1.0738 1.0136 -53.8380 -0.4162 0.8197 -79.5215 1.4319 0.8027 -93.9411 -1.0850 1.0129 -54.2298 -0.4218 0.8237 -82.9187 1.3897 2.6944 -93.2884 3.0069 1.2445 -51.5857 -0.3844 0.7955 5.8496 3.1911 15.6565 48.2607 -3.9279 50.1177 0.0000 0.0000 111.6100 -17.1555 1.2539 -1.1725 15.9929 0.1670 -29.8550 -0.1393 0.9070 3.8738 -12.8249 34.3124 -46.0420 87.2803 -0.0059 -2.2286 89.8835 -2.2803 -2.2850 55.2073 -0.9811 -1.8763 88.0370 -0.0356 -2.3083 89.8839 -2.2803 -2.2850 54.4520 -0.3110 -1.8582 85.9224 0.0463 -2.3212 91.4197 -2.3415 -2.2843 56.1092 -0.6705 -1.8962 87.2803 -0.0059 -2.2286 89.8835 -2.2803 -2.2850 55.2073 -0.9811 -1.8763 -52.2279 8.7295 15.7595 47.9652 -7.7681 2.4271 3.2537 -4.1163 -8.2879 -0.7102 -0.0000 -0.0000 4.4615 -24.8603 -35.6716 26.2667 5.8289 -9.2431 6.7525 11.9779 26.5784 -20.8289 0.0000 -0.0000 
5.2374 82.1930 5.4445 -24.4962 0.5006 2.1454 8.0165 9.9300 -5.9702 6.3627 2.5781 -2.2540 6.4204 2.5120 -2.1913 -0.5698 1.0626 -2.3810 -0.0000 0.0000 -0.0000 4.8779 -0.0238 -0.1780 -7.2371 4.3638 -10.8049 -54.6774 -17.9919 -48.7832 0.0000 -0.0000 -113.0910 -1.1153 6.9649 20.6089 -9.1948 9.9447 21.3315 -7.1120 -1.1907 3.7989 6.5826 -0.7622 54.0307 -80.8752 1.4160 0.8679 -93.3070 -1.0738 1.0136 -53.0349 -0.4047 0.8112 -80.1188 1.4250 0.6737 -93.3061 -1.0738 1.0136 -53.8380 -0.4162 0.8197 -79.5215 1.4319 0.8027 -93.9411 -1.0850 1.0129 -54.2298 -0.4218 0.8237 -82.9187 1.3897 2.6944 -93.2884 3.0069 1.2445 -51.5858 -0.3844 0.7955 6.2506 3.3909 15.6953 47.2366 -1.8040 45.9655 0.0000 0.0000 109.9410 -16.8673 1.9689 -1.7944 15.9928 0.1670 -29.8550 -0.1393 0.9071 3.8738 -12.8249 34.3124 -46.0421 87.2803 -0.0059 -2.2286 89.8835 -2.2803 -2.2849 55.2074 -0.9811 -1.8763 88.0370 -0.0355 -2.3084 89.8839 -2.2803 -2.2850 54.4520 -0.3110 -1.8582 85.9224 0.0463 -2.3212 91.4197 -2.3415 -2.2843 56.1092 -0.6705 -1.8962 87.2803 -0.0059 -2.2286 89.8835 -2.2803 -2.2849 55.2074 -0.9811 -1.8763 -50.3187 9.4530 15.4475 50.9897 -8.0075 2.0777 -2.4246 -3.3292 -6.8134 -0.5502 -0.0000 -0.0000 2.3013 -19.5408 -34.8020 33.1055 7.0037 -9.0500 16.7709 6.6192 18.2665 -15.0344 0.0000 -0.0000 
